<svg width="1200" height="630" viewBox="0 0 1200 630" fill="none" xmlns="http://www.w3.org/2000/svg">
  <defs>
    <radialGradient id="g" cx="0" cy="0" r="1" gradientUnits="userSpaceOnUse" gradientTransform="translate(1000 120) rotate(140) scale(940 640)">
      <stop stop-color="#FFE9A7"/>
      <stop offset=".52" stop-color="#F7C77F"/>
      <stop offset="1" stop-color="#2F1D14"/>
    </radialGradient>
    <pattern id="dots" width="36" height="36" patternUnits="userSpaceOnUse">
      <circle cx="5" cy="5" r="2" fill="#fff" opacity=".25"/>
      <circle cx="22" cy="20" r="1.3" fill="#fff" opacity=".2"/>
    </pattern>
  </defs>
  <rect width="1200" height="630" fill="url(#g)"/>
  <rect width="1200" height="630" fill="url(#dots)"/>
  <g transform="translate(748 130)">
    <path d="M38 259c0-103 76-198 172-198 87 0 154 66 154 151 0 78-51 137-133 137H82c-28 0-44-17-44-45v-45Z" fill="#F9D28D"/>
    <path d="M105 244c38-58 87-95 164-103" stroke="#2F1D14" stroke-width="20" stroke-linecap="round" opacity=".9"/>
    <path d="M131 314h142" stroke="#FFF7E5" stroke-width="16" stroke-linecap="round" opacity=".8"/>
  </g>
  <text x="88" y="180" fill="#FFF8E8" font-family="Inter, ui-sans-serif, system-ui, -apple-system, Segoe UI, sans-serif" font-weight="800" font-size="82">BC Bakes Tally</text>
  <text x="94" y="256" fill="#FFF0CE" font-family="Inter, ui-sans-serif, system-ui, -apple-system, Segoe UI, sans-serif" font-weight="600" font-size="38">Tallahassee sourdough, bagels & sweet treats</text>
  <text x="94" y="336" fill="#2F1D14" font-family="Inter, ui-sans-serif, system-ui, -apple-system, Segoe UI, sans-serif" font-weight="700" font-size="32">Small batch • handmade • preorder friendly</text>
  <rect x="92" y="386" width="330" height="74" rx="37" fill="#FFF8E8"/>
  <text x="132" y="435" fill="#2F1D14" font-family="Inter, ui-sans-serif, system-ui, -apple-system, Segoe UI, sans-serif" font-weight="800" font-size="28">Order on Hotplate</text>
</svg>
